<?xml version="1.0" encoding="UTF-8" standalone="no"?>
<!-- Created with Inkscape (http://www.inkscape.org/) -->

<svg
   xmlns:dc="http://purl.org/dc/elements/1.1/"
   xmlns:cc="http://creativecommons.org/ns#"
   xmlns:rdf="http://www.w3.org/1999/02/22-rdf-syntax-ns#"
   xmlns:svg="http://www.w3.org/2000/svg"
   xmlns="http://www.w3.org/2000/svg"
   xmlns:sodipodi="http://sodipodi.sourceforge.net/DTD/sodipodi-0.dtd"
   xmlns:inkscape="http://www.inkscape.org/namespaces/inkscape"
   width="61.910397mm"
   height="65.345909mm"
   viewBox="0 0 219.36755 231.54063"
   id="svg2"
   version="1.1"
   inkscape:version="0.92.3 (2405546, 2018-03-11)"
   sodipodi:docname="3decision-logo-overwhite-vertical.svg"
   inkscape:export-filename="C:\Users\ValentinBeuchillot\DISCNGINE\Discngine Marketing - Documents\1. 3decision\Identité visuelle\3decision logos\3decision-logo-overwhite-vertical.png"
   inkscape:export-xdpi="600"
   inkscape:export-ydpi="600">
  <defs
     id="defs4">
    <clipPath
       id="clipPath4492"
       clipPathUnits="userSpaceOnUse">
      <path
         inkscape:connector-curvature="0"
         id="path4494"
         d="m 250.776,549.904 c 0,-31.795 25.775,-57.569 57.569,-57.569 l 0,0 c 31.795,0 57.57,25.774 57.57,57.569 l 0,0 c 0,31.795 -25.775,57.57 -57.57,57.57 l 0,0 c -31.794,0 -57.569,-25.775 -57.569,-57.57" />
    </clipPath>
    <clipPath
       id="clipPath4600"
       clipPathUnits="userSpaceOnUse">
      <path
         inkscape:connector-curvature="0"
         id="path4602"
         d="m 735.188,545.2 c 0,-24.939 20.217,-45.156 45.156,-45.156 l 0,0 c 24.938,0 45.155,20.217 45.155,45.156 l 0,0 c 0,24.938 -20.217,45.155 -45.155,45.155 l 0,0 c -24.939,0 -45.156,-20.217 -45.156,-45.155" />
    </clipPath>
    <clipPath
       id="clipPath5708"
       clipPathUnits="userSpaceOnUse">
      <path
         inkscape:connector-curvature="0"
         id="path5710"
         d="m 0,841.89 1190.55,0 L 1190.55,0 0,0 0,841.89 Z" />
    </clipPath>
    <clipPath
       id="clipPath5728"
       clipPathUnits="userSpaceOnUse">
      <path
         inkscape:connector-curvature="0"
         id="path5730"
         d="m 250.776,549.904 c 0,-31.795 25.774,-57.569 57.569,-57.569 l 0,0 c 31.796,0 57.57,25.774 57.57,57.569 l 0,0 c 0,31.795 -25.774,57.57 -57.57,57.57 l 0,0 c -31.795,0 -57.569,-25.775 -57.569,-57.57" />
    </clipPath>
    <clipPath
       id="clipPath5740"
       clipPathUnits="userSpaceOnUse">
      <path
         inkscape:connector-curvature="0"
         id="path5742"
         d="m 0,841.89 1190.55,0 L 1190.55,0 0,0 0,841.89 Z" />
    </clipPath>
    <clipPath
       id="clipPath5836"
       clipPathUnits="userSpaceOnUse">
      <path
         inkscape:connector-curvature="0"
         id="path5838"
         d="m 735.188,545.2 c 0,-24.939 20.217,-45.156 45.155,-45.156 l 0,0 c 24.939,0 45.156,20.217 45.156,45.156 l 0,0 c 0,24.938 -20.217,45.155 -45.156,45.155 l 0,0 c -24.938,0 -45.155,-20.217 -45.155,-45.155" />
    </clipPath>
    <clipPath
       id="clipPath5848"
       clipPathUnits="userSpaceOnUse">
      <path
         inkscape:connector-curvature="0"
         id="path5850"
         d="m 0,841.89 1190.55,0 L 1190.55,0 0,0 0,841.89 Z" />
    </clipPath>
    <clipPath
       id="clipPath5908"
       clipPathUnits="userSpaceOnUse">
      <path
         inkscape:connector-curvature="0"
         id="path5910"
         d="m 800.891,253.151 c 0,-13.716 11.12,-24.835 24.836,-24.835 l 0,0 c 13.716,0 24.834,11.119 24.834,24.835 l 0,0 c 0,13.716 -11.118,24.836 -24.834,24.836 l 0,0 c -13.716,0 -24.836,-11.12 -24.836,-24.836" />
    </clipPath>
    <clipPath
       id="clipPath5920"
       clipPathUnits="userSpaceOnUse">
      <path
         inkscape:connector-curvature="0"
         id="path5922"
         d="m 0,841.89 1190.55,0 L 1190.55,0 0,0 0,841.89 Z" />
    </clipPath>
    <clipPath
       id="clipPath5944"
       clipPathUnits="userSpaceOnUse">
      <path
         inkscape:connector-curvature="0"
         id="path5946"
         d="m 276.943,253.109 c 0,-17.487 14.176,-31.664 31.663,-31.664 l 0,0 c 17.486,0 31.663,14.177 31.663,31.664 l 0,0 c 0,17.486 -14.177,31.663 -31.663,31.663 l 0,0 c -17.487,0 -31.663,-14.177 -31.663,-31.663" />
    </clipPath>
    <clipPath
       id="clipPath5956"
       clipPathUnits="userSpaceOnUse">
      <path
         inkscape:connector-curvature="0"
         id="path5958"
         d="m 0,841.89 1190.55,0 L 1190.55,0 0,0 0,841.89 Z" />
    </clipPath>
  </defs>
  <sodipodi:namedview
     id="base"
     pagecolor="#ffffff"
     bordercolor="#c2c2c2"
     borderopacity="1"
     inkscape:pageopacity="0.0"
     inkscape:pageshadow="2"
     inkscape:zoom="2.3734375"
     inkscape:cx="40.784308"
     inkscape:cy="43.3716"
     inkscape:document-units="px"
     inkscape:current-layer="g902"
     showgrid="false"
     showguides="false"
     inkscape:window-width="2400"
     inkscape:window-height="1271"
     inkscape:window-x="4791"
     inkscape:window-y="-9"
     inkscape:window-maximized="1"
     fit-margin-top="0"
     fit-margin-left="0"
     fit-margin-right="0"
     fit-margin-bottom="0"
     inkscape:showpageshadow="true" />
  <metadata
     id="metadata7">
    <rdf:RDF>
      <cc:Work
         rdf:about="">
        <dc:format>image/svg+xml</dc:format>
        <dc:type
           rdf:resource="http://purl.org/dc/dcmitype/StillImage" />
        <dc:title />
      </cc:Work>
    </rdf:RDF>
  </metadata>
  <g
     inkscape:label="Layer 1"
     inkscape:groupmode="layer"
     id="layer1"
     transform="translate(-17.958803,-388.42261)">
    <g
       transform="matrix(1.25,0,0,-1.25,-474.50388,1143.887)"
       inkscape:label="Logotype 3decision-Planche07"
       id="g4144"
       style="display:inline">
      <g
         id="g6855"
         transform="translate(-39.08779,217.36623)">
        <g
           id="g6835">
          <g
             id="g5744"
             transform="translate(435.98136,221.01507)">
            <path
               d="m 0,0 c -0.183,-5.097 2.847,-8.493 8.035,-8.493 4.223,0 8.218,2.525 8.218,7.117 0,4.544 -3.443,6.793 -7.713,6.793 H 6.106 V 7.85 H 8.54 c 2.985,-0.045 6.52,1.792 6.52,5.831 0,4.223 -3.168,6.06 -7.025,6.06 -4.821,0 -7.392,-3.352 -7.301,-8.126 h -2.891 c 0.046,6.059 3.902,10.559 10.145,10.559 5.052,0 9.963,-2.478 9.963,-8.171 0,-3.49 -1.972,-6.29 -5.416,-7.117 V 6.795 c 4.176,-0.689 6.61,-3.718 6.61,-7.943 0,-6.29 -5.142,-9.778 -11.063,-9.778 -6.658,0 -11.434,4.04 -10.975,10.926 z"
               style="fill:#00afd3;fill-opacity:1;fill-rule:nonzero;stroke:none"
               id="path5746"
               inkscape:connector-curvature="0" />
          </g>
          <g
             id="g5748"
             transform="translate(475.72356,220.95307)">
            <path
               d="m 0,0 v -0.155 c -0.01,-2.417 -0.543,-4.403 -1.59,-5.903 -1.163,-1.694 -2.916,-2.556 -5.21,-2.556 -2.296,0 -4.05,0.862 -5.22,2.565 -1.076,1.487 -1.623,3.497 -1.623,5.971 0,2.473 0.536,4.482 1.589,5.97 1.186,1.701 2.952,2.563 5.254,2.563 2.296,0 4.049,-0.86 5.214,-2.561 C -0.543,4.422 -0.01,2.439 0,0 M 6.771,22.2 C 4.396,21.719 2.586,20.597 1.395,18.866 0.47,17.577 0,15.628 0,13.074 V 7.378 c -1.556,2.185 -3.865,3.29 -6.887,3.29 -2.98,0 -5.624,-1.615 -6.923,-3.214 -1.298,-1.594 -2.138,-4.55 -2.138,-7.532 0,-3.081 0.718,-5.602 2.133,-7.489 1.6,-2.161 3.958,-3.257 7.002,-3.257 1.768,0 3.377,0.43 4.78,1.277 0.796,0.48 1.468,1.124 2.033,1.958 v -2.676 H 2.31 V 7.422 c 0,0.863 0.003,5.313 0.017,5.643 0.068,2.012 0.328,3.428 0.775,4.21 0.793,1.412 2.106,2.333 3.89,2.735 l 0.432,0.088 v 2.228 L 7,22.244 Z"
               style="fill:#00afd3;fill-opacity:1;fill-rule:nonzero;stroke:none"
               id="path5750"
               inkscape:connector-curvature="0" />
          </g>
          <g
             id="g5752"
             transform="translate(549.70496,220.35437)">
            <path
               d="m 0,0 c -0.813,0.591 -2.271,1.144 -4.468,1.689 -0.044,0.01 -0.298,0.082 -0.305,0.083 -3.729,0.943 -5.619,2.258 -5.619,3.905 0,1.118 0.48,1.932 1.504,2.562 0.888,0.542 1.98,0.816 3.244,0.816 3.054,0 4.648,-1.293 5.014,-4.068 L -0.566,4.516 H 1.672 L 1.614,5.118 c -0.219,1.914 -0.991,3.436 -2.292,4.52 -1.269,1.082 -2.888,1.629 -4.814,1.629 -1.85,0 -3.465,-0.432 -4.8,-1.283 -1.6,-1.028 -2.409,-2.503 -2.409,-4.384 0,-1.592 0.6,-2.869 1.788,-3.796 0.997,-0.78 3.076,-1.572 6.382,-2.425 0.067,-0.014 0.606,-0.141 0.61,-0.141 l 0.36,-0.112 c 2.34,-0.634 3.478,-1.687 3.478,-3.216 0,-1.331 -0.503,-2.266 -1.588,-2.948 -0.931,-0.613 -2.144,-0.923 -3.606,-0.923 -3.3,0 -5.111,1.502 -5.696,4.73 l -0.085,0.442 h -2.208 l 0.051,-0.587 c 0.188,-2.196 1.037,-3.913 2.531,-5.104 1.418,-1.126 3.25,-1.697 5.445,-1.697 1.926,0 3.616,0.469 5.035,1.4 1.611,1.126 2.427,2.672 2.427,4.593 C 2.223,-2.381 1.475,-0.973 0,0"
               style="fill:#004d67;fill-opacity:1;fill-rule:nonzero;stroke:none"
               id="path5754"
               inkscape:connector-curvature="0" />
          </g>
          <g
             id="g5756"
             transform="translate(521.37196,216.66987)">
            <path
               d="m 0,0 c -0.348,-1.375 -1.044,-2.451 -2.066,-3.205 -1.036,-0.759 -2.271,-1.146 -3.675,-1.146 -2.28,0 -4.036,0.862 -5.222,2.561 -1.055,1.492 -1.59,3.509 -1.59,5.992 0,2.465 0.535,4.48 1.594,5.995 1.164,1.699 2.92,2.563 5.218,2.563 1.49,0 2.765,-0.416 3.782,-1.232 0.797,-0.656 1.347,-1.42 1.631,-2.266 l 0.127,-0.378 2.093,0.975 -0.187,0.444 c -1.184,3.097 -3.688,4.669 -7.446,4.669 -3.024,0 -5.369,-1.108 -6.969,-3.291 -1.428,-1.888 -2.152,-4.396 -2.152,-7.452 0,-2.976 0.711,-5.466 2.115,-7.406 1.627,-2.188 3.946,-3.296 6.893,-3.296 2.204,0 4.068,0.615 5.543,1.828 l 0.11,0.09 c 1.047,0.937 1.806,2.17 2.26,3.668 L 2.194,-0.436 0.1,0.394 Z"
               style="fill:#004d67;fill-opacity:1;fill-rule:nonzero;stroke:none"
               id="path5758"
               inkscape:connector-curvature="0" />
          </g>
          <path
             d="m 529.21536,210.66407 h 2.306 v 20.571 h -2.306 z"
             style="fill:#004d67;fill-opacity:1;fill-rule:nonzero;stroke:none"
             id="path5760"
             inkscape:connector-curvature="0" />
          <path
             d="m 529.21536,234.56407 h 2.306 v 2.27301 h -2.306 z"
             style="fill:#004d67;fill-opacity:1;fill-rule:nonzero;stroke:none"
             id="path5762"
             inkscape:connector-curvature="0" />
          <path
             d="m 557.43336,210.66407 h 2.308 v 20.571 h -2.308 z"
             style="fill:#004d67;fill-opacity:1;fill-rule:nonzero;stroke:none"
             id="path5764"
             inkscape:connector-curvature="0" />
          <path
             d="m 557.43336,234.56407 h 2.308 v 2.27301 h -2.308 z"
             style="fill:#004d67;fill-opacity:1;fill-rule:nonzero;stroke:none"
             id="path5766"
             inkscape:connector-curvature="0" />
          <g
             id="g5768"
             transform="translate(486.26456,222.43107)">
            <path
               d="m 0,0 c 0.205,1.945 0.786,3.549 1.728,4.768 1.161,1.466 2.796,2.209 4.863,2.209 1.981,0 3.535,-0.763 4.623,-2.269 C 12.111,3.487 12.608,1.906 12.69,0 Z m 6.372,9.194 c -2.95,0 -5.235,-1.139 -6.789,-3.383 -1.321,-1.888 -1.991,-4.365 -1.991,-7.363 0,-2.995 0.67,-5.484 1.993,-7.4 1.556,-2.194 3.839,-3.306 6.787,-3.306 2.067,0 3.873,0.603 5.367,1.79 1.148,0.907 2.001,2.083 2.536,3.497 l 0.165,0.448 -1.933,1.043 -0.231,-0.578 c -1.04,-2.743 -2.971,-4.077 -5.904,-4.077 -2.079,0 -3.72,0.847 -4.882,2.524 -1.016,1.424 -1.55,3.238 -1.587,5.395 h 15.19 v 1.259 c 0,2.954 -0.694,5.347 -2.059,7.11 -1.529,2.019 -3.771,3.041 -6.662,3.041"
               style="fill:#004d67;fill-opacity:1;fill-rule:nonzero;stroke:none"
               id="path5770"
               inkscape:connector-curvature="0" />
          </g>
          <g
             id="g5772"
             transform="translate(608.12496,204.08777)">
            <path
               d="m 0,0 c -1.787,0.396 -3.098,1.317 -3.897,2.737 -0.438,0.772 -0.705,2.226 -0.774,4.208 l -0.016,13.083 c 0,4.924 -2.495,7.526 -7.217,7.526 -2.596,0 -4.614,-0.826 -6.014,-2.461 v 2.055 l -2.31,-0.008 V 6.577 h 2.31 v 10.944 l 0.054,1.932 0.123,1.359 c 0.559,3.089 2.421,4.527 5.864,4.527 1.809,0 3.111,-0.495 3.869,-1.471 0.673,-0.872 1.013,-2.296 1.013,-4.236 V 6.933 c 0,-2.558 0.47,-4.508 1.389,-5.783 1.189,-1.733 3,-2.857 5.382,-3.34 l 0.651,-0.125 v 2.211 z"
               style="fill:#004d67;fill-opacity:1;fill-rule:nonzero;stroke:none"
               id="path5774"
               inkscape:connector-curvature="0" />
          </g>
          <g
             id="g5776"
             transform="translate(573.84956,212.24207)">
            <path
               d="m 0,0 c -4.52,0 -6.579,4.518 -6.579,8.715 0,4.197 2.059,8.715 6.579,8.715 4.52,0 6.576,-4.518 6.576,-8.715 C 6.576,4.518 4.52,0 0,0 M 6.077,17.025 C 6.046,17.058 6.015,17.09 5.983,17.123 5.58,17.541 5.147,17.908 4.681,18.223 4.641,18.249 4.601,18.274 4.561,18.3 4.078,18.612 3.567,18.87 3.025,19.07 2.979,19.087 2.933,19.102 2.887,19.118 2.319,19.316 1.725,19.452 1.1,19.526 1.064,19.53 1.03,19.533 0.995,19.537 0.663,19.572 0.346,19.642 0,19.642 c -0.346,0 -0.663,-0.07 -0.994,-0.105 -0.037,-0.004 -0.073,-0.007 -0.11,-0.012 -0.622,-0.073 -1.213,-0.209 -1.778,-0.405 -0.051,-0.017 -0.101,-0.034 -0.15,-0.052 -0.539,-0.199 -1.045,-0.455 -1.525,-0.764 -0.044,-0.028 -0.088,-0.055 -0.13,-0.085 -0.466,-0.313 -0.898,-0.679 -1.3,-1.096 C -6.018,17.09 -6.049,17.059 -6.08,17.025 -6.279,16.812 -6.5,16.634 -6.682,16.396 -8.17,14.442 -8.991,11.715 -8.991,8.715 c 0,-3 0.821,-5.727 2.309,-7.681 0.182,-0.238 0.404,-0.417 0.602,-0.63 0.031,-0.032 0.062,-0.065 0.093,-0.097 0.402,-0.417 0.834,-0.783 1.3,-1.097 0.042,-0.029 0.086,-0.056 0.13,-0.084 0.48,-0.31 0.986,-0.565 1.525,-0.764 0.049,-0.019 0.099,-0.035 0.15,-0.052 0.565,-0.197 1.156,-0.332 1.778,-0.406 0.037,-0.004 0.073,-0.008 0.11,-0.011 0.331,-0.036 0.648,-0.105 0.994,-0.105 0.346,0 0.663,0.069 0.995,0.105 0.035,0.003 0.069,0.007 0.105,0.011 0.625,0.074 1.219,0.21 1.787,0.408 0.046,0.016 0.092,0.031 0.138,0.048 0.542,0.2 1.053,0.457 1.536,0.77 0.04,0.026 0.081,0.051 0.12,0.077 0.466,0.314 0.899,0.682 1.302,1.101 0.032,0.032 0.063,0.064 0.094,0.097 0.198,0.213 0.419,0.391 0.601,0.629 1.488,1.954 2.309,4.681 2.309,7.681 0,3 -0.821,5.727 -2.309,7.681 -0.182,0.238 -0.403,0.416 -0.601,0.629"
               style="fill:#004d67;fill-opacity:1;fill-rule:nonzero;stroke:none"
               id="path5778"
               inkscape:connector-curvature="0" />
          </g>
        </g>
        <g
           id="g6820">
          <g
             id="g5712"
             transform="translate(521.11616,369.18057)">
            <path
               d="m 0,0 c 31.795,0 57.569,-25.774 57.569,-57.569 0,-31.795 -25.774,-57.57 -57.569,-57.57 -31.795,0 -57.569,25.775 -57.569,57.57 C -57.569,-25.774 -31.795,0 0,0"
               style="fill:#004d67;fill-opacity:1;fill-rule:nonzero;stroke:none"
               id="path5714"
               inkscape:connector-curvature="0" />
          </g>
          <g
             id="g6808">
            <g
               transform="translate(498.34756,297.39147)"
               id="g5716">
              <path
                 inkscape:connector-curvature="0"
                 id="path5718"
                 style="fill:#ffffff;fill-opacity:1;fill-rule:nonzero;stroke:none"
                 d="m 0,0 c 0,2.594 -0.008,27.194 -0.008,28.606 0,1.413 -0.071,9.314 8.525,11.782 14.076,4.042 20.107,5.854 20.167,5.871 L 29.26,44.344 C 29.2,44.326 23.159,42.512 9.068,38.466 1.926,36.415 1.896,29.397 1.896,28.635 v -4.881 z" />
            </g>
            <g
               transform="translate(543.88176,355.95397)"
               id="g5720">
              <path
                 inkscape:connector-curvature="0"
                 id="path5722"
                 style="fill:#00afd3;fill-opacity:1;fill-rule:nonzero;stroke:none"
                 d="m 0,0 c 0,-2.594 0.008,-28.606 0.008,-28.606 0,-0.81 0.071,-9.314 -8.525,-11.782 -14.076,-4.042 -20.107,-5.854 -20.167,-5.871 l -0.576,1.915 c 0.06,0.018 6.101,1.832 20.192,5.878 7.142,2.051 7.172,9.046 7.172,9.831 v 4.881 z" />
            </g>
            <g
               transform="translate(212.57236,-238.29293)"
               id="g5724">
              <g
                 clip-path="url(#clipPath5728)"
                 id="g5726">
                <g
                   transform="translate(331.3192,505.0306)"
                   id="g5732">
                  <path
                     inkscape:connector-curvature="0"
                     id="path5734"
                     style="fill:#ffffff;fill-opacity:1;fill-rule:nonzero;stroke:none"
                     d="m 0,0 v 29.297 c 0,2.281 -0.045,8.998 -9.322,11.536 l -26.292,7.029 c 0,0 -8.033,1.51 -8.033,10.469 0,0.354 -1.904,0.263 -1.901,-0.104 0,0 0.004,-25.756 0.004,-28.145 0,-2.39 0.231,-9.311 8.892,-11.536 l 27.147,-7.25 c 0,0 7.357,-1.997 7.488,-11.324 v -11.46 c 0,-0.553 0.395,-0.948 0.948,-0.948 0.551,0 1.069,0.448 1.069,1 z" />
                </g>
              </g>
            </g>
            <g
               transform="translate(498.34166,385.96428)"
               id="g5780">
              <path
                 inkscape:connector-curvature="0"
                 id="path5782"
                 style="fill:#00afd3;fill-opacity:1;fill-rule:nonzero;stroke:none"
                 d="m 0,0 v -29.297 c 0,-1.865 0.046,-8.998 9.322,-11.536 l 26.292,-7.029 c 0,0 8.03,-1.51 8.03,-10.47 0,-0.353 1.908,-0.262 1.905,0.105 0,0 -0.004,26.621 -0.004,28.145 0,2.07 -0.012,9.206 -8.893,11.536 l -27.146,7.25 c 0,0 -7.488,1.731 -7.488,11.324 V -0.021 C 2.018,0.532 1.622,1.041 1.07,1.041 0.518,1.041 0,0.532 0,-0.021 Z" />
            </g>
          </g>
        </g>
      </g>
    </g>
    <g
       id="g902"
       transform="translate(7.0175344,6.9374005)">
      <text
         id="text895"
         y="573.59082"
         x="228.72"
         style="font-style:normal;font-variant:normal;font-weight:bold;font-stretch:normal;font-size:15px;line-height:0.2;font-family:sans-serif;-inkscape-font-specification:'sans-serif Bold';text-align:end;letter-spacing:0px;word-spacing:0px;writing-mode:vertical-lr;text-anchor:end;fill:#004d67;fill-opacity:1;stroke:none;stroke-width:0.9375"
         xml:space="preserve"><tspan
           style="font-style:normal;font-variant:normal;font-weight:bold;font-stretch:normal;font-size:5px;font-family:Roboto;-inkscape-font-specification:'Roboto Bold';writing-mode:lr-tb;fill:#004d67;fill-opacity:1;stroke-width:0.9375"
           y="573.59082"
           x="228.72"
           id="tspan893"
           sodipodi:role="line">R</tspan></text>
      <circle
         r="2.7268746"
         cy="571.81348"
         cx="227.2283"
         id="path897"
         style="opacity:1;fill:none;fill-opacity:1;stroke:#004d67;stroke-width:0.6796875;stroke-miterlimit:4;stroke-dasharray:none;stroke-opacity:1" />
    </g>
  </g>
</svg>
