<?xml version="1.0" encoding="UTF-8" standalone="no"?>
<!-- Created with Inkscape (http://www.inkscape.org/) -->

<svg
   xmlns:dc="http://purl.org/dc/elements/1.1/"
   xmlns:cc="http://creativecommons.org/ns#"
   xmlns:rdf="http://www.w3.org/1999/02/22-rdf-syntax-ns#"
   xmlns:svg="http://www.w3.org/2000/svg"
   xmlns="http://www.w3.org/2000/svg"
   xmlns:sodipodi="http://sodipodi.sourceforge.net/DTD/sodipodi-0.dtd"
   xmlns:inkscape="http://www.inkscape.org/namespaces/inkscape"
   width="108.67068mm"
   height="32.360111mm"
   viewBox="0 0 385.05358 114.66181"
   id="svg2"
   version="1.1"
   inkscape:version="0.91 r13725"
   sodipodi:docname="3decision-logo-overdark-horizontal-nobg.svg">
  <defs
     id="defs4">
    <clipPath
       id="clipPath4492"
       clipPathUnits="userSpaceOnUse">
      <path
         inkscape:connector-curvature="0"
         id="path4494"
         d="m 250.776,549.904 c 0,-31.795 25.775,-57.569 57.569,-57.569 l 0,0 c 31.795,0 57.57,25.774 57.57,57.569 l 0,0 c 0,31.795 -25.775,57.57 -57.57,57.57 l 0,0 c -31.794,0 -57.569,-25.775 -57.569,-57.57" />
    </clipPath>
    <clipPath
       id="clipPath4600"
       clipPathUnits="userSpaceOnUse">
      <path
         inkscape:connector-curvature="0"
         id="path4602"
         d="m 735.188,545.2 c 0,-24.939 20.217,-45.156 45.156,-45.156 l 0,0 c 24.938,0 45.155,20.217 45.155,45.156 l 0,0 c 0,24.938 -20.217,45.155 -45.155,45.155 l 0,0 c -24.939,0 -45.156,-20.217 -45.156,-45.155" />
    </clipPath>
    <clipPath
       id="clipPath5708"
       clipPathUnits="userSpaceOnUse">
      <path
         inkscape:connector-curvature="0"
         id="path5710"
         d="m 0,841.89 1190.55,0 L 1190.55,0 0,0 0,841.89 Z" />
    </clipPath>
    <clipPath
       id="clipPath5728"
       clipPathUnits="userSpaceOnUse">
      <path
         inkscape:connector-curvature="0"
         id="path5730"
         d="m 250.776,549.904 c 0,-31.795 25.774,-57.569 57.569,-57.569 l 0,0 c 31.796,0 57.57,25.774 57.57,57.569 l 0,0 c 0,31.795 -25.774,57.57 -57.57,57.57 l 0,0 c -31.795,0 -57.569,-25.775 -57.569,-57.57" />
    </clipPath>
    <clipPath
       id="clipPath5740"
       clipPathUnits="userSpaceOnUse">
      <path
         inkscape:connector-curvature="0"
         id="path5742"
         d="m 0,841.89 1190.55,0 L 1190.55,0 0,0 0,841.89 Z" />
    </clipPath>
    <clipPath
       id="clipPath5836"
       clipPathUnits="userSpaceOnUse">
      <path
         inkscape:connector-curvature="0"
         id="path5838"
         d="m 735.188,545.2 c 0,-24.939 20.217,-45.156 45.155,-45.156 l 0,0 c 24.939,0 45.156,20.217 45.156,45.156 l 0,0 c 0,24.938 -20.217,45.155 -45.156,45.155 l 0,0 c -24.938,0 -45.155,-20.217 -45.155,-45.155" />
    </clipPath>
    <clipPath
       id="clipPath5848"
       clipPathUnits="userSpaceOnUse">
      <path
         inkscape:connector-curvature="0"
         id="path5850"
         d="m 0,841.89 1190.55,0 L 1190.55,0 0,0 0,841.89 Z" />
    </clipPath>
    <clipPath
       id="clipPath5908"
       clipPathUnits="userSpaceOnUse">
      <path
         inkscape:connector-curvature="0"
         id="path5910"
         d="m 800.891,253.151 c 0,-13.716 11.12,-24.835 24.836,-24.835 l 0,0 c 13.716,0 24.834,11.119 24.834,24.835 l 0,0 c 0,13.716 -11.118,24.836 -24.834,24.836 l 0,0 c -13.716,0 -24.836,-11.12 -24.836,-24.836" />
    </clipPath>
    <clipPath
       id="clipPath5920"
       clipPathUnits="userSpaceOnUse">
      <path
         inkscape:connector-curvature="0"
         id="path5922"
         d="m 0,841.89 1190.55,0 L 1190.55,0 0,0 0,841.89 Z" />
    </clipPath>
    <clipPath
       id="clipPath5944"
       clipPathUnits="userSpaceOnUse">
      <path
         inkscape:connector-curvature="0"
         id="path5946"
         d="m 276.943,253.109 c 0,-17.487 14.176,-31.664 31.663,-31.664 l 0,0 c 17.486,0 31.663,14.177 31.663,31.664 l 0,0 c 0,17.486 -14.177,31.663 -31.663,31.663 l 0,0 c -17.487,0 -31.663,-14.177 -31.663,-31.663" />
    </clipPath>
    <clipPath
       id="clipPath5956"
       clipPathUnits="userSpaceOnUse">
      <path
         inkscape:connector-curvature="0"
         id="path5958"
         d="m 0,841.89 1190.55,0 L 1190.55,0 0,0 0,841.89 Z" />
    </clipPath>
  </defs>
  <sodipodi:namedview
     id="base"
     pagecolor="#ffffff"
     bordercolor="#c2c2c2"
     borderopacity="1"
     inkscape:pageopacity="0.0"
     inkscape:pageshadow="2"
     inkscape:zoom="0.83913688"
     inkscape:cx="-314.646"
     inkscape:cy="-126.30952"
     inkscape:document-units="px"
     inkscape:current-layer="g4144"
     showgrid="false"
     showguides="false"
     inkscape:window-width="1920"
     inkscape:window-height="1017"
     inkscape:window-x="1358"
     inkscape:window-y="-8"
     inkscape:window-maximized="1"
     fit-margin-top="0"
     fit-margin-left="0"
     fit-margin-right="0"
     fit-margin-bottom="0"
     inkscape:showpageshadow="true" />
  <metadata
     id="metadata7">
    <rdf:RDF>
      <cc:Work
         rdf:about="">
        <dc:format>image/svg+xml</dc:format>
        <dc:type
           rdf:resource="http://purl.org/dc/dcmitype/StillImage" />
        <dc:title></dc:title>
      </cc:Work>
    </rdf:RDF>
  </metadata>
  <g
     inkscape:label="Layer 1"
     inkscape:groupmode="layer"
     id="layer1"
     transform="translate(-315.77757,-438.92286)">
    <g
       transform="matrix(1.25,0,0,-1.25,-474.50388,1143.887)"
       inkscape:label="Logotype 3decision-Planche07"
       id="g4144"
       style="display:inline">
      <g
         id="g5421"
         transform="matrix(1.0157177,0,0,1.0157177,-114.51835,-35.50456)">
        <g
           transform="translate(6.6735239,104.87828)"
           id="g5353">
          <g
             transform="translate(840.19446,433.31273)"
             id="g4240">
            <path
               inkscape:connector-curvature="0"
               id="path4242"
               style="fill:#00afd3;fill-opacity:1;fill-rule:nonzero;stroke:none"
               d="m 0,0 c -0.204,-5.658 3.16,-9.429 8.92,-9.429 4.689,0 9.125,2.803 9.125,7.901 0,5.046 -3.823,7.542 -8.564,7.542 l -2.702,0 0,2.701 2.702,0 c 3.314,-0.049 7.239,1.99 7.239,6.474 0,4.689 -3.518,6.728 -7.8,6.728 -5.352,0 -8.207,-3.721 -8.106,-9.022 l -3.21,0 c 0.051,6.728 4.333,11.724 11.264,11.724 5.61,0 11.062,-2.751 11.062,-9.072 0,-3.875 -2.191,-6.984 -6.014,-7.901 l 0,-0.102 c 4.637,-0.764 7.339,-4.128 7.339,-8.819 0,-6.983 -5.708,-10.856 -12.282,-10.856 C 1.58,-12.131 -3.722,-7.646 -3.212,0 L 0,0 Z" />
          </g>
          <g
             transform="translate(884.31756,433.24393)"
             id="g4244">
            <path
               inkscape:connector-curvature="0"
               id="path4246"
               style="fill:#00afd3;fill-opacity:1;fill-rule:nonzero;stroke:none"
               d="m 0,0 0,-0.172 c -0.011,-2.683 -0.604,-4.888 -1.765,-6.553 -1.292,-1.882 -3.238,-2.838 -5.784,-2.838 -2.549,0 -4.497,0.956 -5.796,2.847 -1.194,1.652 -1.801,3.883 -1.801,6.63 0,2.745 0.593,4.976 1.764,6.628 1.317,1.888 3.278,2.845 5.833,2.845 2.549,0 4.494,-0.954 5.788,-2.843 C -0.604,4.91 -0.011,2.708 0,0 M 7.518,24.648 C 4.881,24.114 2.871,22.868 1.548,20.946 0.521,19.515 0,17.351 0,14.515 L 0,8.192 c -1.728,2.425 -4.291,3.653 -7.646,3.653 -3.309,0 -6.244,-1.794 -7.686,-3.569 -1.442,-1.769 -2.374,-5.051 -2.374,-8.362 0,-3.421 0.797,-6.22 2.367,-8.315 1.778,-2.399 4.396,-3.616 7.775,-3.616 1.962,0 3.75,0.477 5.306,1.418 0.884,0.532 1.631,1.248 2.258,2.173 l 0,-2.97 2.564,0 0,19.636 c 0,0.959 0.004,5.9 0.02,6.266 0.075,2.233 0.364,3.806 0.859,4.674 0.881,1.568 2.339,2.59 4.32,3.036 l 0.479,0.097 0,2.474 -0.471,-0.09 -0.253,-0.049 z" />
          </g>
          <g
             transform="translate(966.45616,432.57933)"
             id="g4248">
            <path
               inkscape:connector-curvature="0"
               id="path4250"
               style="fill:#ffffff;fill-opacity:1;fill-rule:nonzero;stroke:none"
               d="m 0,0 c -0.903,0.656 -2.522,1.27 -4.961,1.875 -0.049,0.011 -0.331,0.09 -0.34,0.093 -4.139,1.047 -6.237,2.507 -6.237,4.335 0,1.241 0.532,2.145 1.67,2.845 0.984,0.601 2.197,0.905 3.601,0.905 3.391,0 5.16,-1.435 5.567,-4.516 l 0.07,-0.524 2.484,0 -0.063,0.67 c -0.243,2.124 -1.101,3.814 -2.545,5.018 -1.409,1.201 -3.207,1.808 -5.345,1.808 -2.053,0 -3.846,-0.479 -5.329,-1.424 -1.775,-1.142 -2.675,-2.778 -2.675,-4.868 0,-1.767 0.667,-3.185 1.986,-4.214 1.106,-0.866 3.415,-1.745 7.086,-2.692 0.074,-0.016 0.673,-0.157 0.677,-0.157 l 0.4,-0.124 c 2.598,-0.704 3.861,-1.873 3.861,-3.571 0,-1.478 -0.559,-2.516 -1.762,-3.273 -1.035,-0.681 -2.381,-1.025 -4.005,-1.025 -3.664,0 -5.674,1.668 -6.323,5.252 l -0.095,0.49 -2.451,0 0.057,-0.651 c 0.207,-2.439 1.151,-4.344 2.809,-5.668 1.575,-1.25 3.609,-1.883 6.045,-1.883 2.138,0 4.015,0.521 5.59,1.554 1.789,1.25 2.695,2.967 2.695,5.1 C 2.467,-2.644 1.636,-1.08 0,0" />
          </g>
          <g
             transform="translate(934.99816,428.48903)"
             id="g4252">
            <path
               inkscape:connector-curvature="0"
               id="path4254"
               style="fill:#ffffff;fill-opacity:1;fill-rule:nonzero;stroke:none"
               d="m 0,0 c -0.386,-1.526 -1.159,-2.721 -2.294,-3.558 -1.148,-0.844 -2.52,-1.273 -4.08,-1.273 -2.53,0 -4.48,0.957 -5.797,2.843 -1.171,1.656 -1.765,3.896 -1.765,6.653 0,2.736 0.594,4.973 1.769,6.656 1.292,1.887 3.242,2.845 5.793,2.845 1.654,0 3.07,-0.462 4.199,-1.367 0.886,-0.729 1.495,-1.577 1.811,-2.516 l 0.141,-0.42 2.324,1.083 -0.207,0.492 c -1.315,3.439 -4.095,5.184 -8.268,5.184 -3.356,0 -5.961,-1.23 -7.736,-3.653 -1.586,-2.096 -2.39,-4.881 -2.39,-8.274 0,-3.304 0.788,-6.069 2.348,-8.222 1.806,-2.43 4.381,-3.66 7.653,-3.66 2.446,0 4.517,0.683 6.155,2.03 l 0.121,0.099 c 1.162,1.04 2.006,2.41 2.509,4.073 L 2.437,-0.484 0.111,0.437 0,0 Z" />
          </g>
          <path
             inkscape:connector-curvature="0"
             id="path4256"
             style="fill:#ffffff;fill-opacity:1;fill-rule:nonzero;stroke:none"
             d="m 943.70746,421.82083 2.56,0 0,22.839 -2.56,0 0,-22.839 z" />
          <path
             inkscape:connector-curvature="0"
             id="path4258"
             style="fill:#ffffff;fill-opacity:1;fill-rule:nonzero;stroke:none"
             d="m 943.70746,448.35483 2.56,0 0,2.524 -2.56,0 0,-2.524 z" />
          <path
             inkscape:connector-curvature="0"
             id="path4260"
             style="fill:#ffffff;fill-opacity:1;fill-rule:nonzero;stroke:none"
             d="m 975.03646,421.82083 2.562,0 0,22.839 -2.562,0 0,-22.839 z" />
          <path
             inkscape:connector-curvature="0"
             id="path4262"
             style="fill:#ffffff;fill-opacity:1;fill-rule:nonzero;stroke:none"
             d="m 975.03646,448.35483 2.562,0 0,2.524 -2.562,0 0,-2.524 z" />
          <g
             transform="translate(896.02166,434.88503)"
             id="g4264">
            <path
               inkscape:connector-curvature="0"
               id="path4266"
               style="fill:#ffffff;fill-opacity:1;fill-rule:nonzero;stroke:none"
               d="m 0,0 c 0.228,2.16 0.872,3.94 1.917,5.294 1.289,1.628 3.105,2.452 5.399,2.452 2.201,0 3.925,-0.847 5.133,-2.518 C 13.445,3.872 13.998,2.116 14.088,0 L 0,0 Z m 7.074,10.208 c -3.275,0 -5.813,-1.266 -7.538,-3.757 -1.467,-2.096 -2.211,-4.846 -2.211,-8.174 0,-3.326 0.744,-6.089 2.213,-8.216 1.728,-2.436 4.263,-3.67 7.536,-3.67 2.294,0 4.3,0.669 5.958,1.987 1.275,1.007 2.223,2.313 2.817,3.883 l 0.183,0.497 -2.147,1.157 -0.256,-0.64 c -1.155,-3.046 -3.3,-4.528 -6.555,-4.528 -2.308,0 -4.131,0.941 -5.42,2.803 -1.129,1.581 -1.72,3.596 -1.762,5.99 l 16.864,0 0,1.398 c 0,3.279 -0.771,5.937 -2.285,7.893 -1.699,2.242 -4.188,3.377 -7.397,3.377" />
          </g>
          <g
             transform="translate(1031.3156,414.51933)"
             id="g4268">
            <path
               inkscape:connector-curvature="0"
               id="path4270"
               style="fill:#ffffff;fill-opacity:1;fill-rule:nonzero;stroke:none"
               d="m 0,0 c -1.983,0.44 -3.439,1.462 -4.327,3.039 -0.485,0.857 -0.782,2.472 -0.86,4.671 l -0.017,14.526 c 0,5.467 -2.77,8.355 -8.013,8.355 -2.882,0 -5.122,-0.916 -6.677,-2.732 l 0,2.282 -2.563,-0.009 0,-22.83 2.563,0 0,12.152 0.06,2.144 0.138,1.508 c 0.62,3.431 2.687,5.027 6.51,5.027 2.008,0 3.455,-0.55 4.296,-1.634 0.746,-0.967 1.124,-2.549 1.124,-4.702 l 0,-14.1 c 0,-2.84 0.521,-5.005 1.541,-6.42 1.322,-1.924 3.331,-3.172 5.977,-3.709 l 0.723,-0.139 0,2.456 L 0,0 Z" />
          </g>
          <g
             transform="translate(993.26186,423.57253)"
             id="g4272">
            <path
               inkscape:connector-curvature="0"
               id="path4274"
               style="fill:#ffffff;fill-opacity:1;fill-rule:nonzero;stroke:none"
               d="m 0,0 c -5.019,0 -7.305,5.016 -7.305,9.676 0,4.66 2.286,9.676 7.305,9.676 5.018,0 7.301,-5.016 7.301,-9.676 C 7.301,5.016 5.018,0 0,0 M 6.746,18.902 C 6.712,18.939 6.678,18.975 6.643,19.01 6.195,19.475 5.715,19.883 5.196,20.232 5.152,20.261 5.107,20.289 5.063,20.317 4.527,20.665 3.961,20.95 3.358,21.173 3.308,21.191 3.256,21.208 3.205,21.226 2.574,21.446 1.914,21.597 1.22,21.679 1.182,21.684 1.144,21.687 1.104,21.691 0.736,21.73 0.384,21.808 0,21.808 -0.384,21.808 -0.736,21.73 -1.104,21.691 -1.145,21.687 -1.186,21.683 -1.227,21.678 -1.916,21.596 -2.573,21.446 -3.2,21.228 -3.256,21.209 -3.313,21.191 -3.367,21.17 -3.965,20.949 -4.527,20.666 -5.06,20.322 -5.108,20.291 -5.157,20.261 -5.205,20.229 -5.722,19.88 -6.2,19.474 -6.647,19.011 c -0.035,-0.036 -0.07,-0.072 -0.103,-0.108 -0.222,-0.236 -0.467,-0.435 -0.669,-0.7 -1.652,-2.168 -2.564,-5.197 -2.564,-8.527 0,-3.331 0.912,-6.359 2.564,-8.528 0.202,-0.264 0.447,-0.462 0.669,-0.699 0.034,-0.036 0.068,-0.072 0.103,-0.108 0.446,-0.463 0.925,-0.869 1.442,-1.217 0.048,-0.033 0.097,-0.063 0.145,-0.094 0.533,-0.344 1.095,-0.627 1.693,-0.849 0.054,-0.02 0.111,-0.038 0.167,-0.057 0.627,-0.218 1.284,-0.369 1.973,-0.451 0.041,-0.004 0.082,-0.008 0.123,-0.012 0.368,-0.039 0.72,-0.117 1.104,-0.117 0.384,0 0.736,0.078 1.104,0.117 0.04,0.004 0.078,0.007 0.116,0.012 0.694,0.082 1.354,0.233 1.985,0.453 0.051,0.018 0.103,0.035 0.153,0.053 0.603,0.223 1.169,0.509 1.705,0.856 0.044,0.028 0.089,0.055 0.133,0.085 0.519,0.349 0.999,0.757 1.447,1.221 0.035,0.036 0.069,0.072 0.103,0.109 0.221,0.236 0.466,0.434 0.668,0.698 1.652,2.169 2.565,5.197 2.565,8.528 0,3.33 -0.913,6.359 -2.565,8.527 -0.202,0.265 -0.447,0.463 -0.668,0.699" />
          </g>
        </g>
        <g
           id="g5406">
          <g
             transform="translate(825.499,545.0443)"
             id="g4584">
            <path
               inkscape:connector-curvature="0"
               id="path4586"
               style="fill:#004d67;fill-opacity:1;fill-rule:nonzero;stroke:none"
               d="m 0,0 c 0,-24.938 -20.217,-45.155 -45.155,-45.155 -24.939,0 -45.156,20.217 -45.156,45.155 0,24.938 20.217,45.155 45.156,45.155 C -20.217,45.155 0,24.938 0,0" />
          </g>
          <g
             id="g5326">
            <g
               id="g4588"
               transform="translate(769.1904,562.9032)">
              <path
                 d="m 0,0 c 2.034,0 21.33,0.006 22.437,0.006 1.109,0 7.306,0.056 9.242,-6.686 3.17,-11.041 4.592,-15.772 4.605,-15.818 l -1.502,-0.452 c -0.014,0.047 -1.437,4.784 -4.61,15.837 -1.61,5.603 -7.114,5.625 -7.712,5.625 l -3.828,0 L 0,0 Z"
                 style="fill:#ffffff;fill-opacity:1;fill-rule:nonzero;stroke:none"
                 id="path4590"
                 inkscape:connector-curvature="0" />
            </g>
            <g
               id="g4592"
               transform="translate(815.125,527.1879)">
              <path
                 d="m 0,0 c -2.035,0 -22.438,-0.005 -22.438,-0.005 -0.634,0 -7.305,-0.057 -9.241,6.685 -3.171,11.041 -4.592,15.772 -4.605,15.818 l 1.502,0.452 c 0.014,-0.047 1.437,-4.784 4.61,-15.837 1.61,-5.602 7.096,-5.625 7.712,-5.625 l 3.828,0 L 0,0 Z"
                 style="fill:#00afd3;fill-opacity:1;fill-rule:nonzero;stroke:none"
                 id="path4594"
                 inkscape:connector-curvature="0" />
            </g>
            <g
               id="g4596">
              <g
                 id="g4598"
                 clip-path="url(#clipPath4600)">
                <g
                   id="g4604"
                   transform="translate(745.1465,527.1801)">
                  <path
                     d="m 0,0 22.979,0 c 1.79,0 7.059,0.036 9.049,7.312 l 5.514,20.623 c 0,0 1.184,6.3 8.211,6.3 0.277,0 0.206,1.494 -0.082,1.492 0,0 -20.201,-0.004 -22.075,-0.004 -1.875,0 -7.304,-0.181 -9.049,-6.974 L 8.861,7.456 c 0,0 -1.566,-5.771 -8.882,-5.874 l -8.99,0 c -0.432,0 -0.743,-0.31 -0.743,-0.743 C -9.754,0.406 -9.402,0 -8.969,0 L 0,0 Z"
                     style="fill:#ffffff;fill-opacity:1;fill-rule:nonzero;stroke:none"
                     id="path4606"
                     inkscape:connector-curvature="0" />
                </g>
              </g>
            </g>
            <g
               id="g4616"
               transform="translate(838.6631,562.9076)">
              <path
                 d="m 0,0 -22.979,0 c -1.462,0 -7.058,-0.036 -9.048,-7.312 l -5.514,-20.623 c 0,0 -1.184,-6.297 -8.211,-6.297 -0.277,0 -0.206,-1.497 0.082,-1.495 0,0 20.88,0.004 22.075,0.004 1.623,0 7.221,0.009 9.049,6.974 l 5.686,21.293 c 0,0 1.358,5.874 8.882,5.874 l -0.038,0 c 0.434,0 0.832,0.31 0.832,0.743 C 0.816,-0.406 0.418,0 -0.016,0 L 0,0 Z"
                 style="fill:#00afd3;fill-opacity:1;fill-rule:nonzero;stroke:none"
                 id="path4618"
                 inkscape:connector-curvature="0" />
            </g>
          </g>
        </g>
      </g>
    </g>
  </g>
</svg>
