<svg width="960" height="960"><g class="legend"><g transform="translate(950,10)"><rect x="-18" width="18" height="18" fill="#006ddb"></rect><text x="-24" y="9" dy=".35em" text-anchor="end">AGC</text></g><g transform="translate(950,30)"><rect x="-18" width="18" height="18" fill="#490092"></rect><text x="-24" y="9" dy=".35em" text-anchor="end">Atypical</text></g><g transform="translate(950,50)"><rect x="-18" width="18" height="18" fill="#ffb6db"></rect><text x="-24" y="9" dy=".35em" text-anchor="end">CAMK</text></g><g transform="translate(950,70)"><rect x="-18" width="18" height="18" fill="#009292"></rect><text x="-24" y="9" dy=".35em" text-anchor="end">CK1</text></g><g transform="translate(950,90)"><rect x="-18" width="18" height="18" fill="#004949"></rect><text x="-24" y="9" dy=".35em" text-anchor="end">CMGC</text></g><g transform="translate(950,110)"><rect x="-18" width="18" height="18" fill="#ff6db6"></rect><text x="-24" y="9" dy=".35em" text-anchor="end">Other</text></g><g transform="translate(950,130)"><rect x="-18" width="18" height="18" fill="#b6dbff"></rect><text x="-24" y="9" dy=".35em" text-anchor="end">RGC</text></g><g transform="translate(950,150)"><rect x="-18" width="18" height="18" fill="#6db6ff"></rect><text x="-24" y="9" dy=".35em" text-anchor="end">STE</text></g><g transform="translate(950,170)"><rect x="-18" width="18" height="18" fill="#b66dff"></rect><text x="-24" y="9" dy=".35em" text-anchor="end">TK</text></g><g transform="translate(950,190)"><rect x="-18" width="18" height="18" fill="#7A9E9C"></rect><text x="-24" y="9" dy=".35em" text-anchor="end">TKL</text></g></g></svg>