<?xml version="1.0" encoding="UTF-8" standalone="no"?>
<!-- Created with Inkscape (http://www.inkscape.org/) -->

<svg
   xmlns:dc="http://purl.org/dc/elements/1.1/"
   xmlns:cc="http://creativecommons.org/ns#"
   xmlns:rdf="http://www.w3.org/1999/02/22-rdf-syntax-ns#"
   xmlns:svg="http://www.w3.org/2000/svg"
   xmlns="http://www.w3.org/2000/svg"
   xmlns:sodipodi="http://sodipodi.sourceforge.net/DTD/sodipodi-0.dtd"
   xmlns:inkscape="http://www.inkscape.org/namespaces/inkscape"
   version="1.1"
   id="svg2"
   xml:space="preserve"
   width="1280"
   height="1356"
   viewBox="0 0 1280 1356"
   sodipodi:docname="Logo-bleu.svg"
   inkscape:version="0.92.2 5c3e80d, 2017-08-06"><metadata
     id="metadata8"><rdf:RDF><cc:Work
         rdf:about=""><dc:format>image/svg+xml</dc:format><dc:type
           rdf:resource="http://purl.org/dc/dcmitype/StillImage" /><dc:title></dc:title></cc:Work></rdf:RDF></metadata><defs
     id="defs6"><clipPath
       clipPathUnits="userSpaceOnUse"
       id="clipPath18"><path
         d="M 0,1017 H 960 V 0 H 0 Z"
         id="path16"
         inkscape:connector-curvature="0" /></clipPath><clipPath
       clipPathUnits="userSpaceOnUse"
       id="clipPath28"><path
         d="m -8469.55,10782.8 h 16383 V -5802.47 h -16383 z"
         id="path26"
         inkscape:connector-curvature="0" /></clipPath></defs><sodipodi:namedview
     pagecolor="#ffffff"
     bordercolor="#666666"
     borderopacity="1"
     objecttolerance="10"
     gridtolerance="10"
     guidetolerance="10"
     inkscape:pageopacity="0"
     inkscape:pageshadow="2"
     inkscape:window-width="640"
     inkscape:window-height="480"
     id="namedview4"
     showgrid="false"
     inkscape:zoom="0.1740413"
     inkscape:cx="640"
     inkscape:cy="678"
     inkscape:window-x="0"
     inkscape:window-y="0"
     inkscape:window-maximized="0"
     inkscape:current-layer="g10" /><g
     id="g10"
     inkscape:groupmode="layer"
     inkscape:label="Logo-bleu"
     transform="matrix(1.3333333,0,0,-1.3333333,0,1356)"><g
       id="g12"><g
         id="g14"
         clip-path="url(#clipPath18)"><g
           id="g20"
           transform="matrix(1.9815933,0,0,-1.9815933,479.9859,508.50259)"><g
             id="g22"><g
               id="g24"
               clip-path="url(#clipPath28)"><g
                 id="g30"
                 transform="translate(0.0071,-143.2789)"><path
                   d="m 0,0 c 79.131,0 143.28,64.149 143.28,143.28 0,79.132 -64.149,143.28 -143.28,143.28 -79.131,0 -143.28,-64.148 -143.28,-143.28 C -143.28,64.149 -79.131,0 0,0"
                   style="fill:#004a65;fill-opacity:1;fill-rule:nonzero;stroke:none"
                   id="path32"
                   inkscape:connector-curvature="0" /></g><g
                 id="g34"
                 transform="translate(-93.7798,2.1083)"><path
                   d="m 0,0 c -0.015,3.382 -0.77,6.167 -2.24,8.276 -1.672,2.44 -4.186,3.677 -7.466,3.677 -3.289,0 -5.799,-1.237 -7.473,-3.677 -1.517,-2.1 -2.291,-4.926 -2.291,-8.384 0,-3.461 0.755,-6.276 2.24,-8.375 1.706,-2.445 4.235,-3.68 7.524,-3.68 3.28,0 5.794,1.235 7.466,3.675 1.473,2.082 2.225,4.863 2.24,8.276 z M 1.803,-25.522 C 0.608,-23.859 0,-21.312 0,-17.946 v 9.445 c -1.949,-3.73 -5.207,-5.698 -9.824,-5.698 -3.916,0 -7.363,2.144 -9.016,4.181 -1.66,2.036 -2.792,5.905 -2.792,9.91 0,4.081 0.943,7.4 2.798,9.872 2.078,2.803 5.145,4.221 9.109,4.221 2.315,0 4.41,-0.56 6.236,-1.664 C -1.929,11.382 -0.816,9.964 0,8.258 v 4.969 H 2.165 V -10.28 c 0,-0.528 0.004,-7.186 0.025,-7.671 0.093,-2.806 0.467,-4.799 1.112,-5.93 1.147,-2.041 3.039,-3.371 5.6,-3.948 l 0.201,-0.041 v -2.039 l -0.305,0.059 c -3.093,0.626 -5.447,2.079 -6.995,4.328"
                   style="fill:#ffffff;fill-opacity:1;fill-rule:nonzero;stroke:none"
                   id="path36"
                   inkscape:connector-curvature="0" /></g><path
                 d="m -81.128,15.363 h 2.165 v -26.917 h -2.165 z"
                 style="fill:#ffffff;fill-opacity:1;fill-rule:nonzero;stroke:none"
                 id="path38"
                 inkscape:connector-curvature="0" /><path
                 d="m -81.128,-17.049 h 2.165 v -2.117 h -2.165 z"
                 style="fill:#ffffff;fill-opacity:1;fill-rule:nonzero;stroke:none"
                 id="path40"
                 inkscape:connector-curvature="0" /><g
                 id="g42"
                 transform="translate(-52.3475,3.0784)"><path
                   d="m 0,0 c -1.049,-0.767 -2.978,-1.492 -5.887,-2.217 -0.009,0 -0.43,-0.115 -0.43,-0.115 -5.327,-1.35 -7.985,-3.275 -7.985,-5.765 0,-1.678 0.743,-2.951 2.271,-3.89 1.274,-0.776 2.843,-1.176 4.653,-1.176 4.368,0 6.751,1.939 7.279,5.937 l 0.03,0.221 h 2.08 L 1.983,-7.287 c -0.28,-2.461 -1.266,-4.42 -2.941,-5.817 -1.632,-1.389 -3.725,-2.093 -6.216,-2.093 -2.421,0 -4.517,0.56 -6.25,1.664 -2.023,1.302 -3.044,3.162 -3.044,5.542 0,2.002 0.754,3.605 2.238,4.767 1.295,1.012 4.055,2.059 8.443,3.193 0.019,0 0.886,0.205 0.886,0.205 l 0.475,0.147 c 3.416,0.925 5.072,2.51 5.072,4.831 0,1.955 -0.775,3.397 -2.373,4.402 -1.349,0.889 -3.079,1.331 -5.156,1.331 -4.692,0 -7.367,-2.221 -8.2,-6.808 l -0.039,-0.208 h -2.067 l 0.025,0.271 c 0.238,2.84 1.333,5.057 3.247,6.587 1.839,1.459 4.222,2.197 7.085,2.197 2.514,0 4.718,-0.607 6.553,-1.813 C 1.773,9.675 2.808,7.716 2.808,5.278 2.808,3.003 1.862,1.224 0,0"
                   style="fill:#ffffff;fill-opacity:1;fill-rule:nonzero;stroke:none"
                   id="path44"
                   inkscape:connector-curvature="0" /></g><g
                 id="g46"
                 transform="translate(-24.5221,12.44)"><path
                   d="m 0,0 c -1.493,1.099 -3.268,1.65 -5.271,1.65 -3.254,0 -5.772,-1.235 -7.478,-3.679 -1.49,-2.109 -2.242,-4.935 -2.242,-8.405 0,-3.438 0.752,-6.269 2.242,-8.404 1.676,-2.447 4.189,-3.687 7.478,-3.687 2.131,0 3.964,0.601 5.437,1.782 1.146,0.943 1.945,2.049 2.364,3.291 l 1.925,-0.898 -0.076,-0.186 c -1.529,-3.998 -4.774,-6.023 -9.65,-6.023 -3.938,0 -6.988,1.436 -9.066,4.272 -1.869,2.471 -2.822,5.779 -2.822,9.815 0,3.932 0.935,7.221 2.772,9.757 2.114,2.842 5.127,4.277 8.962,4.277 2.933,0 5.404,-0.828 7.345,-2.481 h 0.002 c 1.356,-1.21 2.337,-2.812 2.923,-4.749 L 4.902,-3.858 2.985,-4.616 C 2.488,-2.648 1.485,-1.092 0,0"
                   style="fill:#ffffff;fill-opacity:1;fill-rule:nonzero;stroke:none"
                   id="path48"
                   inkscape:connector-curvature="0" /></g><g
                 id="g50"
                 transform="translate(38.0991,10.4071)"><path
                   d="m 0,0 v 0.007 c -1.67,2.438 -4.187,3.673 -7.47,3.673 -3.284,0 -5.814,-1.235 -7.519,-3.678 -1.489,-2.097 -2.241,-4.919 -2.241,-8.377 0,-3.463 0.773,-6.28 2.289,-8.382 1.676,-2.438 4.187,-3.679 7.471,-3.679 3.283,0 5.8,1.241 7.47,3.679 1.483,2.136 2.24,4.953 2.24,8.382 C 2.24,-4.917 1.485,-2.095 0,0 m 2.24,-16.734 c -0.816,-1.707 -1.927,-3.129 -3.485,-4.075 -1.832,-1.104 -3.927,-1.664 -6.237,-1.664 -3.97,0 -7.032,1.423 -9.111,4.228 -1.859,2.472 -2.8,5.795 -2.8,9.87 0,4.005 0.924,7.325 2.745,9.867 2.08,2.802 5.13,4.226 9.062,4.226 4.617,0 7.878,-1.977 9.826,-5.698 v 1.777 c 0,0.53 -0.005,3.16 -0.026,3.641 -0.095,2.804 -0.471,4.799 -1.111,5.928 -1.154,2.05 -3.036,3.377 -5.602,3.948 L -4.7,15.362 v 2.034 l 0.308,-0.059 c 3.085,-0.625 5.449,-2.079 6.993,-4.328 1.197,-1.661 1.8,-4.207 1.8,-7.571 V -21.975 H 2.24 Z"
                   style="fill:#ffffff;fill-opacity:1;fill-rule:nonzero;stroke:none"
                   id="path52"
                   inkscape:connector-curvature="0" /></g><path
                 d="m 52.306,15.368 h 2.163 v -26.936 h -2.163 z"
                 style="fill:#ffffff;fill-opacity:1;fill-rule:nonzero;stroke:none"
                 id="path54"
                 inkscape:connector-curvature="0" /><path
                 d="m 52.306,-17.049 h 2.163 v -2.117 h -2.163 z"
                 style="fill:#ffffff;fill-opacity:1;fill-rule:nonzero;stroke:none"
                 id="path56"
                 inkscape:connector-curvature="0" /><g
                 id="g58"
                 transform="translate(75.2786,-12.1185)"><path
                   d="M 0,0 C -4.01,0 -6.875,1.503 -8.641,4.334 V 0.56 0.551 h -2.165 V 0.56 27.487 h 2.165 V 13.111 l 0.076,-2.65 0.173,-1.887 c 0.793,-4.396 3.557,-6.538 8.429,-6.538 2.61,0 4.507,0.738 5.631,2.188 0.981,1.271 1.473,3.302 1.473,6.038 V 27.487 H 9.306 V 9.723 C 9.306,3.273 6.175,0 0,0"
                   style="fill:#ffffff;fill-opacity:1;fill-rule:nonzero;stroke:none"
                   id="path60"
                   inkscape:connector-curvature="0" /></g><g
                 id="g62"
                 transform="translate(97.3994,-6.8772)"><path
                   d="m 0,0 c 1.669,-2.106 4.015,-3.178 6.976,-3.178 2.849,0 5.092,1.101 6.659,3.273 1.377,1.871 2.069,4.296 2.113,7.156 H -2.494 C -2.262,4.328 -1.443,1.869 0,0 M 18.027,9.291 V 8.066 c 0,-3.888 -0.9,-7.032 -2.696,-9.353 -1.977,-2.607 -4.884,-3.932 -8.65,-3.932 -3.837,0 -6.8,1.476 -8.813,4.384 -1.733,2.474 -2.616,5.736 -2.616,9.707 0,3.968 0.883,7.25 2.616,9.756 2.013,2.84 4.976,4.283 8.813,4.283 2.692,0 5.044,-0.788 6.979,-2.325 1.483,-1.172 2.595,-2.7 3.286,-4.531 l 0.08,-0.212 -1.777,-0.958 -0.106,0.271 c -1.494,3.935 -4.258,5.843 -8.462,5.843 -2.981,0 -5.349,-1.22 -7.018,-3.626 C -1.832,15.271 -2.58,12.601 -2.58,9.436 V 9.291 Z"
                   style="fill:#ffffff;fill-opacity:1;fill-rule:nonzero;stroke:none"
                   id="path64"
                   inkscape:connector-curvature="0" /></g><g
                 id="g66"
                 transform="translate(10.5887,21.2962)"><path
                   d="m 0,0 c -0.64,-1.129 -1.016,-3.124 -1.112,-5.928 h -0.021 v -17.764 c 0,-6.449 -3.131,-9.723 -9.306,-9.723 -4.01,0 -6.875,1.504 -8.642,4.335 v -3.775 -0.009 h -2.164 v 0.009 26.927 h 2.164 v -14.376 l 0.077,-2.65 0.173,-1.887 c 0.793,-4.395 3.556,-6.537 8.429,-6.537 2.61,0 4.507,0.738 5.631,2.187 0.981,1.271 1.473,3.303 1.473,6.039 v 17.224 c 0,3.363 0.603,5.91 1.8,7.571 1.544,2.249 3.908,3.703 6.993,4.328 L 5.803,6.03 V 3.996 L 5.602,3.948 C 3.036,3.377 1.154,2.05 0,0"
                   style="fill:#00b4d6;fill-opacity:1;fill-rule:nonzero;stroke:none"
                   id="path68"
                   inkscape:connector-curvature="0" /></g></g></g></g></g></g></g></svg>